<svg width="17.613281" height="14.303711" viewBox="0 0 17.6133 14.3037" fill="none" xmlns="http://www.w3.org/2000/svg" xmlns:xlink="http://www.w3.org/1999/xlink">
	<desc>
			Created with Pixso.
	</desc>
	<defs/>
	<path d="M15.82 3.54C16.5 3.03 17.13 2.41 17.61 1.68C16.99 1.96 16.26 2.17 15.54 2.24C16.3 1.79 16.85 1.1 17.13 0.24C16.44 0.65 15.64 0.96 14.85 1.13C14.16 0.41 13.23 0 12.2 0C10.2 0 8.58 1.62 8.58 3.61C8.58 3.89 8.61 4.17 8.68 4.44C5.68 4.27 2.99 2.82 1.2 0.65C0.89 1.17 0.72 1.79 0.72 2.48C0.72 3.72 1.34 4.82 2.34 5.48C1.75 5.44 1.17 5.3 0.68 5.03L0.68 5.06C0.68 6.82 1.92 8.27 3.58 8.61C3.3 8.68 2.96 8.75 2.65 8.75C2.41 8.75 2.2 8.71 1.96 8.68C2.41 10.13 3.75 11.16 5.34 11.2C4.1 12.16 2.55 12.75 0.86 12.75C0.55 12.75 0.27 12.71 0 12.68C1.58 13.71 3.48 14.3 5.54 14.3C12.2 14.3 15.82 8.82 15.82 4.03C15.82 3.86 15.82 3.72 15.82 3.54Z" fill="#000000" fill-opacity="1.000000" fill-rule="nonzero"/>
</svg>
